<svg version="1.1" id="Layer_1" xmlns="http://www.w3.org/2000/svg" xmlns:xlink="http://www.w3.org/1999/xlink" x="0px" y="0px"
	 width="100%" viewBox="0 0 3253 3253" enable-background="new 0 0 3253 3253" xml:space="preserve">
<path fill="#100F0D" opacity="1.000000" stroke="none" 
	d="
M3256.000000,1516.000000 
	C3256.000000,1590.708496 3256.000000,1665.416870 3255.218994,1741.258057 
	C3253.690186,1743.407349 3252.374512,1744.375366 3252.282715,1745.448120 
	C3251.404053,1755.684204 3250.845703,1765.947754 3249.976318,1776.184814 
	C3248.631104,1792.024292 3247.393799,1807.881226 3245.580566,1823.669922 
	C3244.147461,1836.148682 3241.891113,1848.531982 3240.048584,1860.964844 
	C3237.768311,1876.351440 3236.030762,1891.837769 3233.173340,1907.115356 
	C3228.544922,1931.861816 3223.148438,1956.463867 3218.159912,1981.143677 
	C3209.535400,2023.812134 3197.906006,2065.721191 3185.077393,2107.255615 
	C3175.280029,2138.974365 3164.557617,2170.456299 3152.889893,2201.533936 
	C3141.331543,2232.320312 3128.974365,2262.879395 3115.326660,2292.789062 
	C3099.186035,2328.161865 3081.595703,2362.888184 3064.016113,2397.581787 
	C3055.611572,2414.168213 3045.996582,2430.158936 3036.543213,2446.191406 
	C3024.392822,2466.797607 3012.404297,2487.532959 2999.348145,2507.562744 
	C2981.941650,2534.266357 2963.946533,2560.607910 2945.495361,2586.602051 
	C2932.443359,2604.989502 2918.526855,2622.791260 2904.425293,2640.397217 
	C2890.535400,2657.738770 2876.098389,2674.652588 2861.583740,2691.480469 
	C2846.846191,2708.566650 2832.472900,2726.063965 2816.610840,2742.063232 
	C2780.768311,2778.215820 2745.853027,2815.358887 2706.826172,2848.243164 
	C2691.093750,2861.499268 2676.041016,2875.578613 2660.056641,2888.514404 
	C2640.212402,2904.574951 2620.187012,2920.489258 2599.406006,2935.296631 
	C2566.429932,2958.793701 2533.060303,2981.770752 2499.276123,3004.088379 
	C2479.359619,3017.245117 2458.404541,3028.846436 2437.762695,3040.883301 
	C2422.279541,3049.911865 2406.774414,3058.951172 2390.872559,3067.201904 
	C2372.321045,3076.826904 2353.391113,3085.733154 2334.508301,3094.705566 
	C2314.129150,3104.388184 2293.874268,3114.402344 2273.096191,3123.158936 
	C2245.238525,3134.898193 2217.072510,3145.946289 2188.782715,3156.612549 
	C2141.804443,3174.324951 2094.032471,3189.798584 2045.312256,3201.847412 
	C2001.236206,3212.748047 1956.768921,3222.131104 1912.304565,3231.366943 
	C1893.213257,3235.332764 1873.704956,3237.319824 1854.363159,3240.042480 
	C1842.890991,3241.657227 1831.378906,3242.994629 1819.875854,3244.383057 
	C1804.113159,3246.286133 1788.371094,3248.440918 1772.564941,3249.881836 
	C1759.690186,3251.055420 1746.736206,3251.380371 1733.812866,3251.985840 
	C1730.920654,3252.121582 1728.460083,3252.514404 1728.000000,3256.000000 
	C1663.291504,3256.000000 1598.583130,3256.000000 1532.742065,3255.216553 
	C1528.262817,3253.622070 1524.951294,3252.336914 1521.562988,3252.084473 
	C1508.662354,3251.122803 1495.699707,3250.879395 1482.829956,3249.642578 
	C1467.358887,3248.155762 1451.960449,3245.917969 1436.527832,3244.027100 
	C1419.112671,3241.893311 1401.562622,3240.535889 1384.306152,3237.503418 
	C1350.713501,3231.600098 1317.253296,3224.921143 1283.795166,3218.276611 
	C1233.269165,3208.242920 1183.851685,3194.040527 1134.754761,3178.565430 
	C1076.952148,3160.346680 1020.675354,3138.205322 965.337708,3113.618652 
	C948.972229,3106.347168 932.929932,3098.340332 916.816711,3090.511963 
	C900.117432,3082.398926 883.207397,3074.649414 866.935303,3065.743896 
	C841.597900,3051.876465 816.534241,3037.481689 791.705811,3022.719727 
	C769.731384,3009.654297 747.979187,2996.174561 726.606079,2982.150146 
	C707.731995,2969.765869 689.265625,2956.718506 671.079956,2943.337891 
	C652.381165,2929.579834 634.036865,2915.317383 615.914673,2900.804932 
	C599.088196,2887.330078 582.614502,2873.403076 566.251404,2859.364990 
	C549.882507,2845.322021 533.292664,2831.465576 517.782776,2816.508301 
	C491.874695,2791.523193 466.657013,2765.818115 441.344269,2740.222656 
	C432.469910,2731.249268 423.911957,2721.930176 415.667480,2712.374023 
	C401.804596,2696.305420 388.173889,2680.030762 374.697021,2663.635986 
	C362.272980,2648.522217 349.797699,2633.423828 338.037598,2617.797119 
	C323.268799,2598.172607 308.670807,2578.376953 294.963074,2558.006592 
	C274.562531,2527.690430 254.601044,2497.059570 235.237701,2466.072021 
	C223.093201,2446.636719 212.199707,2426.406250 201.092392,2406.340088 
	C191.427551,2388.880615 181.966980,2371.294189 172.952011,2353.492676 
	C166.347961,2340.451660 160.507812,2327.017822 154.512695,2313.675781 
	C144.300278,2290.948242 133.637390,2268.397461 124.263702,2245.325439 
	C113.652199,2219.207031 103.931625,2192.711182 94.425468,2166.163818 
	C86.687477,2144.553955 79.159393,2122.824219 72.738419,2100.797852 
	C60.480076,2058.746826 48.753052,2016.526978 39.974258,1973.570435 
	C36.459133,1956.370361 33.122562,1939.131226 29.940912,1921.866211 
	C26.701992,1904.290771 23.554222,1886.693481 20.746998,1869.045166 
	C18.824211,1856.956787 17.442301,1844.777710 16.019480,1832.615723 
	C14.442187,1819.133423 13.098990,1805.624023 11.643521,1792.127563 
	C10.437811,1780.946899 8.863673,1769.792236 8.090116,1758.582153 
	C7.062268,1743.687012 6.619343,1728.750488 6.008215,1713.828491 
	C5.889493,1710.929565 5.466593,1708.482422 2.000000,1708.000000 
	C2.000000,1655.291504 2.000000,1602.583130 2.782664,1548.739380 
	C4.374438,1545.257568 5.766360,1542.943115 5.898161,1540.559082 
	C6.759165,1524.985352 7.345465,1509.396606 8.028669,1493.812988 
	C8.072372,1492.816162 8.135639,1491.816895 8.257460,1490.827026 
	C10.155961,1475.399048 12.141262,1459.981445 13.953328,1444.543335 
	C16.152454,1425.807983 17.572275,1406.956543 20.480333,1388.335083 
	C24.411900,1363.159546 28.816435,1338.021973 34.142540,1313.108643 
	C41.971626,1276.487427 49.966949,1239.861816 59.454224,1203.647583 
	C67.110001,1174.424438 76.584946,1145.642578 86.151810,1116.964844 
	C96.459564,1086.066162 107.095047,1055.235962 118.936523,1024.902588 
	C128.598251,1000.153076 139.894669,976.015503 151.106140,951.904114 
	C164.274460,923.584290 177.406250,895.204224 191.903473,867.558044 
	C205.762161,841.129578 221.158707,815.495605 236.256714,789.733643 
	C245.132797,774.588257 254.374390,759.627258 264.107971,745.020752 
	C280.504150,720.416321 296.924255,695.798889 314.266449,671.862305 
	C330.411224,649.578491 347.552917,628.001770 364.675720,606.447388 
	C375.605804,592.688477 387.164581,579.419067 398.685760,566.142090 
	C413.036987,549.603760 426.906250,532.557617 442.286102,517.020020 
	C474.604736,484.369995 507.723602,452.510254 540.632019,420.447327 
	C548.001770,413.266907 555.602661,406.276184 563.538513,399.733582 
	C584.003479,382.861603 604.348755,365.809174 625.417603,349.713409 
	C654.679199,327.358673 684.156677,305.239258 714.304871,284.107910 
	C736.566162,268.504608 759.671265,254.006409 783.074707,240.155228 
	C815.365845,221.043991 848.209045,202.856964 880.991455,184.589188 
	C892.292358,178.291809 903.991760,172.663925 915.731262,167.208099 
	C944.283142,153.938919 972.598267,140.057861 1001.692871,128.085815 
	C1034.183472,114.716347 1067.218750,102.576973 1100.408325,91.026306 
	C1131.166992,80.321602 1162.201172,70.239685 1193.558228,61.471653 
	C1223.865112,52.997219 1254.744751,46.574013 1285.361938,39.205093 
	C1323.401367,30.049791 1362.038818,24.143139 1400.648560,18.139973 
	C1413.723389,16.107058 1426.957886,15.108945 1440.113159,13.583168 
	C1455.882812,11.754169 1471.616577,9.545205 1487.420898,8.104985 
	C1500.293701,6.931892 1513.245605,6.607628 1526.166992,6.002139 
	C1529.056396,5.866741 1531.518677,5.474100 1532.000000,2.000000 
	C1597.375122,2.000000 1662.750244,2.000000 1729.259155,2.780800 
	C1731.742554,4.351474 1733.042847,5.723382 1734.449341,5.842791 
	C1751.940674,7.327748 1769.455078,8.538923 1786.947876,10.007821 
	C1802.456299,11.310092 1818.011353,12.348436 1833.425903,14.403126 
	C1853.751221,17.112371 1874.027466,20.325481 1894.201904,23.997814 
	C1925.477051,29.690872 1956.731445,35.558281 1987.843750,42.072193 
	C2031.391113,51.189564 2074.377930,62.613132 2116.629883,76.560127 
	C2146.259033,86.340416 2175.697754,96.732567 2205.001221,107.452942 
	C2228.344971,115.992958 2251.769775,124.521614 2274.418213,134.702484 
	C2308.900879,150.203232 2342.839355,166.931702 2376.814941,183.536041 
	C2392.322754,191.114990 2407.735352,199.024475 2422.548584,207.861221 
	C2458.749023,229.456451 2494.941162,251.108170 2530.422607,273.851135 
	C2553.875732,288.884277 2576.291992,305.574005 2598.793945,322.039490 
	C2614.579590,333.590393 2629.864502,345.842438 2645.121582,358.094604 
	C2660.631836,370.550201 2676.023193,383.168701 2691.120117,396.119904 
	C2708.243408,410.809479 2725.709229,425.211212 2741.733887,441.045929 
	C2773.697998,472.631409 2804.937988,504.957184 2836.144043,537.298523 
	C2848.120117,549.709961 2859.571289,562.680298 2870.574707,575.964844 
	C2886.204590,594.834595 2901.404785,614.071594 2916.406738,633.447083 
	C2930.010742,651.016541 2943.625977,668.618713 2956.298584,686.857849 
	C2974.687256,713.322693 2992.364014,740.286926 3010.075684,767.215027 
	C3017.697021,778.802551 3024.822754,790.728943 3031.844238,802.694763 
	C3037.890869,812.999084 3043.540283,823.539673 3049.240723,834.043274 
	C3061.595459,856.808472 3074.264893,879.415405 3086.048096,902.474182 
	C3094.666748,919.340088 3101.924072,936.896118 3110.057861,954.016296 
	C3128.618896,993.081970 3145.094727,1033.046875 3159.476318,1073.783936 
	C3177.836426,1125.790161 3195.126953,1178.216431 3207.837646,1231.942993 
	C3216.607910,1269.013916 3224.089355,1306.394409 3231.821777,1343.704102 
	C3234.909912,1358.604004 3237.447510,1373.637817 3239.641357,1388.697388 
	C3241.644775,1402.451172 3242.768066,1416.331299 3244.420654,1430.138794 
	C3246.188477,1444.912231 3248.433105,1459.635254 3249.885254,1474.437622 
	C3251.049805,1486.306641 3251.386963,1498.259277 3251.986572,1510.180054 
	C3252.131836,1513.070312 3252.522461,1515.529907 3256.000000,1516.000000 
M1043.108521,2153.939209 
	C1048.284424,2168.724121 1053.187500,2183.611572 1058.678223,2198.278564 
	C1117.875000,2356.408447 1213.125244,2489.488770 1339.342285,2600.845947 
	C1409.529419,2662.769775 1487.898193,2712.206543 1572.361938,2752.364990 
	C1675.914062,2801.599365 1784.513794,2832.989746 1898.435059,2845.520752 
	C1988.282593,2855.403564 2078.010498,2854.085205 2167.499512,2840.510742 
	C2246.584961,2828.513916 2323.081787,2807.359131 2396.954102,2776.718262 
	C2478.681396,2742.819336 2554.021484,2697.900635 2624.675293,2644.839355 
	C2695.087158,2591.959717 2759.054199,2532.463379 2813.302002,2462.836670 
	C2884.868164,2370.982422 2935.936523,2268.904541 2966.671875,2156.602051 
	C2982.262939,2099.633301 2992.876465,2041.668701 3001.816895,1983.360352 
	C3003.309326,1973.625732 3004.504639,1963.845581 3005.991455,1952.958740 
	C2623.644043,1952.958740 2242.459961,1952.958740 1861.182129,1952.958740 
	C1847.940186,1921.093018 1835.024414,1890.059448 1822.147095,1859.009888 
	C1809.257690,1827.931274 1796.429199,1796.827759 1783.533447,1765.751953 
	C1770.640015,1734.681641 1757.682373,1703.638062 1744.778809,1672.571899 
	C1732.000488,1641.807251 1719.247192,1611.032349 1706.496826,1580.256104 
	C1693.619751,1549.174194 1680.764282,1518.083496 1667.891479,1486.999878 
	C1655.018433,1455.915771 1642.280518,1424.774902 1629.216431,1393.771362 
	C1616.235840,1362.965942 1604.080811,1331.794556 1590.197754,1300.773560 
	C1555.862427,1324.295044 1524.833496,1349.467651 1496.688599,1378.002563 
	C1481.494995,1393.406738 1467.488281,1409.976318 1452.726562,1425.815430 
	C1449.264404,1429.530273 1448.370117,1432.980591 1450.780762,1437.400146 
	C1451.573242,1438.853027 1452.049438,1440.478149 1452.673828,1442.023071 
	C1502.607300,1565.552124 1552.529907,1689.085815 1602.478638,1812.608765 
	C1642.939209,1912.667358 1683.426270,2012.715332 1723.931519,2112.755859 
	C1725.390991,2116.360596 1727.169800,2119.835693 1728.956421,2123.711182 
	C2079.199219,2123.711182 2428.760010,2123.711182 2779.589600,2123.711182 
	C2778.467041,2127.809814 2777.729980,2130.982910 2776.728027,2134.070068 
	C2773.336670,2144.515137 2769.995117,2154.979736 2766.378174,2165.347412 
	C2751.085693,2209.183350 2733.062256,2251.867432 2708.337158,2291.257324 
	C2623.764648,2425.989502 2511.266357,2530.097900 2367.715820,2599.798828 
	C2307.806885,2628.887939 2245.335205,2650.640625 2180.035400,2663.851318 
	C2102.148682,2679.608398 2023.510376,2683.890625 1944.298462,2677.854004 
	C1895.342773,2674.123291 1847.118286,2665.890137 1799.680542,2653.337646 
	C1733.377441,2635.793701 1670.176025,2610.326416 1609.733032,2577.932129 
	C1527.004028,2533.593994 1453.479370,2477.436279 1391.001343,2407.221680 
	C1324.433716,2332.411133 1275.035645,2247.218262 1239.607788,2153.809326 
	C1209.716553,2074.998291 1192.819458,1993.505737 1189.611572,1909.140137 
	C1187.333862,1849.237183 1191.660034,1789.921753 1203.134888,1731.144043 
	C1219.218140,1648.760254 1248.335449,1571.050659 1287.807495,1497.092651 
	C1346.585815,1386.961670 1426.125244,1294.961548 1528.951782,1223.963623 
	C1649.061523,1141.032104 1781.362915,1089.888794 1927.191895,1075.698242 
	C2002.248291,1068.394409 2076.980713,1071.298706 2151.224121,1084.628296 
	C2256.473877,1103.524292 2353.985352,1142.604980 2444.806885,1198.597656 
	C2502.187500,1233.973755 2553.323242,1276.880981 2597.839355,1327.658569 
	C2625.788330,1359.538940 2651.427490,1393.135254 2675.060059,1428.293823 
	C2678.120850,1432.847168 2680.893311,1436.290527 2687.525146,1436.261963 
	C2755.855957,1435.967285 2824.188477,1436.075806 2892.520508,1436.024902 
	C2894.278076,1436.023560 2896.035156,1435.485352 2897.706787,1435.211670 
	C2897.621826,1433.660278 2897.754883,1432.941772 2897.520508,1432.375244 
	C2896.631348,1430.223633 2895.626221,1428.119995 2894.660400,1426.000244 
	C2862.327881,1355.044434 2819.373047,1291.064941 2766.814697,1233.633667 
	C2672.847656,1130.954712 2561.166016,1052.332642 2435.562256,993.362549 
	C2316.708008,937.561523 2191.001709,908.884766 2060.091553,902.734070 
	C1998.422974,899.836548 1936.864014,901.702026 1875.482300,909.243164 
	C1804.784180,917.928650 1735.743530,933.645691 1668.483643,956.928223 
	C1577.234375,988.514954 1492.041992,1031.991577 1413.735962,1088.671997 
	C1356.337402,1130.218994 1303.135010,1176.566528 1255.249390,1228.840576 
	C1195.452515,1294.117310 1146.500366,1366.898682 1106.164917,1445.612305 
	C1041.707153,1571.399902 1004.470215,1704.352295 1000.188538,1846.051514 
	C998.544250,1900.467773 1001.477112,1954.603027 1009.370850,2008.493164 
	C1016.533813,2057.395020 1027.828979,2105.311035 1043.108521,2153.939209 
M684.987671,918.048889 
	C682.795288,923.270081 680.569702,928.477600 678.415649,933.714539 
	C653.079712,995.310791 627.805176,1056.932373 602.414795,1118.506104 
	C561.661682,1217.335693 520.795227,1316.118408 480.049805,1414.951172 
	C448.826141,1490.687866 417.750397,1566.485596 386.542572,1642.228760 
	C363.070465,1699.196655 339.486725,1756.118652 315.964783,1813.066040 
	C294.352325,1865.390259 272.735321,1917.712769 251.158585,1970.051880 
	C231.609619,2017.471680 212.100037,2064.907959 192.621811,2112.356934 
	C191.449753,2115.211914 190.707886,2118.243896 189.531708,2121.926514 
	C193.642914,2122.192383 196.259949,2122.508301 198.877121,2122.509521 
	C261.869263,2122.537109 324.861420,2122.541748 387.853577,2122.518311 
	C396.790588,2122.514893 396.852142,2122.461914 400.159058,2114.278076 
	C430.600342,2038.943970 461.084473,1963.627075 491.423004,1888.251587 
	C516.287415,1826.476318 540.907288,1764.602661 565.753113,1702.819824 
	C587.620178,1648.444092 609.720520,1594.162109 631.588501,1539.786743 
	C653.828613,1484.485840 675.830505,1429.089111 698.081665,1373.792725 
	C726.425293,1303.356445 754.979126,1233.004761 783.321533,1162.567993 
	C808.182861,1100.782471 832.818176,1038.906128 857.660217,977.112793 
	C891.697815,892.446167 925.866272,807.832092 959.922791,723.172974 
	C991.738953,644.083191 1023.477600,564.962158 1055.272217,485.863678 
	C1056.724243,482.251404 1058.392212,478.725952 1060.927979,472.956635 
	C1139.770752,667.936218 1217.776733,860.846619 1296.363525,1055.193481 
	C1343.845581,1015.967163 1393.014526,982.013184 1444.936035,951.352844 
	C1443.715088,947.615356 1442.981934,944.754639 1441.865112,942.052551 
	C1434.614868,924.511475 1427.254028,907.016113 1419.979736,889.484863 
	C1396.242920,832.278015 1372.511963,775.068726 1348.808838,717.847839 
	C1326.509033,664.014404 1304.282959,610.150208 1281.958252,556.327087 
	C1262.695068,509.885437 1243.311401,463.493774 1224.030762,417.059418 
	C1200.788696,361.084686 1177.463013,305.143829 1154.539551,249.038757 
	C1151.247681,240.981705 1146.711426,238.297409 1138.107056,238.355087 
	C1084.116211,238.717072 1030.121704,238.538177 976.128418,238.538467 
	C974.795227,238.538467 973.447754,238.668854 972.131470,238.520569 
	C966.960510,237.938065 963.984985,240.429504 962.413513,245.138824 
	C961.888489,246.712082 961.062683,248.182465 960.428162,249.722046 
	C925.538208,334.389069 890.645447,419.054993 855.771851,503.728760 
	C829.266907,568.083496 802.809631,632.457825 776.289917,696.806458 
	C746.086060,770.094482 715.836609,843.363708 684.987671,918.048889 
z"/>
<path fill="#000000" opacity="1.000000" stroke="none" 
	d="
M2.000000,1708.937256 
	C5.466593,1708.482422 5.889493,1710.929565 6.008215,1713.828491 
	C6.619343,1728.750488 7.062268,1743.687012 8.090116,1758.582153 
	C8.863673,1769.792236 10.437811,1780.946899 11.643521,1792.127563 
	C13.098990,1805.624023 14.442187,1819.133423 16.019480,1832.615723 
	C17.442301,1844.777710 18.824211,1856.956787 20.746998,1869.045166 
	C23.554222,1886.693481 26.701992,1904.290771 29.940912,1921.866211 
	C33.122562,1939.131226 36.459133,1956.370361 39.974258,1973.570435 
	C48.753052,2016.526978 60.480076,2058.746826 72.738419,2100.797852 
	C79.159393,2122.824219 86.687477,2144.553955 94.425468,2166.163818 
	C103.931625,2192.711182 113.652199,2219.207031 124.263702,2245.325439 
	C133.637390,2268.397461 144.300278,2290.948242 154.512695,2313.675781 
	C160.507812,2327.017822 166.347961,2340.451660 172.952011,2353.492676 
	C181.966980,2371.294189 191.427551,2388.880615 201.092392,2406.340088 
	C212.199707,2426.406250 223.093201,2446.636719 235.237701,2466.072021 
	C254.601044,2497.059570 274.562531,2527.690430 294.963074,2558.006592 
	C308.670807,2578.376953 323.268799,2598.172607 338.037598,2617.797119 
	C349.797699,2633.423828 362.272980,2648.522217 374.697021,2663.635986 
	C388.173889,2680.030762 401.804596,2696.305420 415.667480,2712.374023 
	C423.911957,2721.930176 432.469910,2731.249268 441.344269,2740.222656 
	C466.657013,2765.818115 491.874695,2791.523193 517.782776,2816.508301 
	C533.292664,2831.465576 549.882507,2845.322021 566.251404,2859.364990 
	C582.614502,2873.403076 599.088196,2887.330078 615.914673,2900.804932 
	C634.036865,2915.317383 652.381165,2929.579834 671.079956,2943.337891 
	C689.265625,2956.718506 707.731995,2969.765869 726.606079,2982.150146 
	C747.979187,2996.174561 769.731384,3009.654297 791.705811,3022.719727 
	C816.534241,3037.481689 841.597900,3051.876465 866.935303,3065.743896 
	C883.207397,3074.649414 900.117432,3082.398926 916.816711,3090.511963 
	C932.929932,3098.340332 948.972229,3106.347168 965.337708,3113.618652 
	C1020.675354,3138.205322 1076.952148,3160.346680 1134.754761,3178.565430 
	C1183.851685,3194.040527 1233.269165,3208.242920 1283.795166,3218.276611 
	C1317.253296,3224.921143 1350.713501,3231.600098 1384.306152,3237.503418 
	C1401.562622,3240.535889 1419.112671,3241.893311 1436.527832,3244.027100 
	C1451.960449,3245.917969 1467.358887,3248.155762 1482.829956,3249.642578 
	C1495.699707,3250.879395 1508.662354,3251.122803 1521.562988,3252.084473 
	C1524.951294,3252.336914 1528.262817,3253.622070 1531.804688,3255.216553 
	C1022.144958,3256.000000 512.289856,3256.000000 2.000000,3256.000000 
	C2.000000,2740.625000 2.000000,2225.249756 2.000000,1708.937256 
z"/>
<path fill="#000000" opacity="1.000000" stroke="none" 
	d="
M1531.062744,2.000000 
	C1531.518677,5.474100 1529.056396,5.866741 1526.166992,6.002139 
	C1513.245605,6.607628 1500.293701,6.931892 1487.420898,8.104985 
	C1471.616577,9.545205 1455.882812,11.754169 1440.113159,13.583168 
	C1426.957886,15.108945 1413.723389,16.107058 1400.648560,18.139973 
	C1362.038818,24.143139 1323.401367,30.049791 1285.361938,39.205093 
	C1254.744751,46.574013 1223.865112,52.997219 1193.558228,61.471653 
	C1162.201172,70.239685 1131.166992,80.321602 1100.408325,91.026306 
	C1067.218750,102.576973 1034.183472,114.716347 1001.692871,128.085815 
	C972.598267,140.057861 944.283142,153.938919 915.731262,167.208099 
	C903.991760,172.663925 892.292358,178.291809 880.991455,184.589188 
	C848.209045,202.856964 815.365845,221.043991 783.074707,240.155228 
	C759.671265,254.006409 736.566162,268.504608 714.304871,284.107910 
	C684.156677,305.239258 654.679199,327.358673 625.417603,349.713409 
	C604.348755,365.809174 584.003479,382.861603 563.538513,399.733582 
	C555.602661,406.276184 548.001770,413.266907 540.632019,420.447327 
	C507.723602,452.510254 474.604736,484.369995 442.286102,517.020020 
	C426.906250,532.557617 413.036987,549.603760 398.685760,566.142090 
	C387.164581,579.419067 375.605804,592.688477 364.675720,606.447388 
	C347.552917,628.001770 330.411224,649.578491 314.266449,671.862305 
	C296.924255,695.798889 280.504150,720.416321 264.107971,745.020752 
	C254.374390,759.627258 245.132797,774.588257 236.256714,789.733643 
	C221.158707,815.495605 205.762161,841.129578 191.903473,867.558044 
	C177.406250,895.204224 164.274460,923.584290 151.106140,951.904114 
	C139.894669,976.015503 128.598251,1000.153076 118.936523,1024.902588 
	C107.095047,1055.235962 96.459564,1086.066162 86.151810,1116.964844 
	C76.584946,1145.642578 67.110001,1174.424438 59.454224,1203.647583 
	C49.966949,1239.861816 41.971626,1276.487427 34.142540,1313.108643 
	C28.816435,1338.021973 24.411900,1363.159546 20.480333,1388.335083 
	C17.572275,1406.956543 16.152454,1425.807983 13.953328,1444.543335 
	C12.141262,1459.981445 10.155961,1475.399048 8.257460,1490.827026 
	C8.135639,1491.816895 8.072372,1492.816162 8.028669,1493.812988 
	C7.345465,1509.396606 6.759165,1524.985352 5.898161,1540.559082 
	C5.766360,1542.943115 4.374438,1545.257568 2.782664,1547.802002 
	C2.000000,1032.813232 2.000000,517.626404 2.000000,2.000000 
	C511.375031,2.000000 1020.750183,2.000000 1531.062744,2.000000 
z"/>
<path fill="#000000" opacity="1.000000" stroke="none" 
	d="
M1728.937256,3256.000000 
	C1728.460083,3252.514404 1730.920654,3252.121582 1733.812866,3251.985840 
	C1746.736206,3251.380371 1759.690186,3251.055420 1772.564941,3249.881836 
	C1788.371094,3248.440918 1804.113159,3246.286133 1819.875854,3244.383057 
	C1831.378906,3242.994629 1842.890991,3241.657227 1854.363159,3240.042480 
	C1873.704956,3237.319824 1893.213257,3235.332764 1912.304565,3231.366943 
	C1956.768921,3222.131104 2001.236206,3212.748047 2045.312256,3201.847412 
	C2094.032471,3189.798584 2141.804443,3174.324951 2188.782715,3156.612549 
	C2217.072510,3145.946289 2245.238525,3134.898193 2273.096191,3123.158936 
	C2293.874268,3114.402344 2314.129150,3104.388184 2334.508301,3094.705566 
	C2353.391113,3085.733154 2372.321045,3076.826904 2390.872559,3067.201904 
	C2406.774414,3058.951172 2422.279541,3049.911865 2437.762695,3040.883301 
	C2458.404541,3028.846436 2479.359619,3017.245117 2499.276123,3004.088379 
	C2533.060303,2981.770752 2566.429932,2958.793701 2599.406006,2935.296631 
	C2620.187012,2920.489258 2640.212402,2904.574951 2660.056641,2888.514404 
	C2676.041016,2875.578613 2691.093750,2861.499268 2706.826172,2848.243164 
	C2745.853027,2815.358887 2780.768311,2778.215820 2816.610840,2742.063232 
	C2832.472900,2726.063965 2846.846191,2708.566650 2861.583740,2691.480469 
	C2876.098389,2674.652588 2890.535400,2657.738770 2904.425293,2640.397217 
	C2918.526855,2622.791260 2932.443359,2604.989502 2945.495361,2586.602051 
	C2963.946533,2560.607910 2981.941650,2534.266357 2999.348145,2507.562744 
	C3012.404297,2487.532959 3024.392822,2466.797607 3036.543213,2446.191406 
	C3045.996582,2430.158936 3055.611572,2414.168213 3064.016113,2397.581787 
	C3081.595703,2362.888184 3099.186035,2328.161865 3115.326660,2292.789062 
	C3128.974365,2262.879395 3141.331543,2232.320312 3152.889893,2201.533936 
	C3164.557617,2170.456299 3175.280029,2138.974365 3185.077393,2107.255615 
	C3197.906006,2065.721191 3209.535400,2023.812134 3218.159912,1981.143677 
	C3223.148438,1956.463867 3228.544922,1931.861816 3233.173340,1907.115356 
	C3236.030762,1891.837769 3237.768311,1876.351440 3240.048584,1860.964844 
	C3241.891113,1848.531982 3244.147461,1836.148682 3245.580566,1823.669922 
	C3247.393799,1807.881226 3248.631104,1792.024292 3249.976318,1776.184814 
	C3250.845703,1765.947754 3251.404053,1755.684204 3252.282715,1745.448120 
	C3252.374512,1744.375366 3253.690186,1743.407349 3255.218994,1742.195312 
	C3256.000000,2246.521484 3256.000000,2751.043213 3256.000000,3256.000000 
	C2747.291748,3256.000000 2238.583252,3256.000000 1728.937256,3256.000000 
z"/>
<path fill="#000000" opacity="1.000000" stroke="none" 
	d="
M3256.000000,1515.062744 
	C3252.522461,1515.529907 3252.131836,1513.070312 3251.986572,1510.180054 
	C3251.386963,1498.259277 3251.049805,1486.306641 3249.885254,1474.437622 
	C3248.433105,1459.635254 3246.188477,1444.912231 3244.420654,1430.138794 
	C3242.768066,1416.331299 3241.644775,1402.451172 3239.641357,1388.697388 
	C3237.447510,1373.637817 3234.909912,1358.604004 3231.821777,1343.704102 
	C3224.089355,1306.394409 3216.607910,1269.013916 3207.837646,1231.942993 
	C3195.126953,1178.216431 3177.836426,1125.790161 3159.476318,1073.783936 
	C3145.094727,1033.046875 3128.618896,993.081970 3110.057861,954.016296 
	C3101.924072,936.896118 3094.666748,919.340088 3086.048096,902.474182 
	C3074.264893,879.415405 3061.595459,856.808472 3049.240723,834.043274 
	C3043.540283,823.539673 3037.890869,812.999084 3031.844238,802.694763 
	C3024.822754,790.728943 3017.697021,778.802551 3010.075684,767.215027 
	C2992.364014,740.286926 2974.687256,713.322693 2956.298584,686.857849 
	C2943.625977,668.618713 2930.010742,651.016541 2916.406738,633.447083 
	C2901.404785,614.071594 2886.204590,594.834595 2870.574707,575.964844 
	C2859.571289,562.680298 2848.120117,549.709961 2836.144043,537.298523 
	C2804.937988,504.957184 2773.697998,472.631409 2741.733887,441.045929 
	C2725.709229,425.211212 2708.243408,410.809479 2691.120117,396.119904 
	C2676.023193,383.168701 2660.631836,370.550201 2645.121582,358.094604 
	C2629.864502,345.842438 2614.579590,333.590393 2598.793945,322.039490 
	C2576.291992,305.574005 2553.875732,288.884277 2530.422607,273.851135 
	C2494.941162,251.108170 2458.749023,229.456451 2422.548584,207.861221 
	C2407.735352,199.024475 2392.322754,191.114990 2376.814941,183.536041 
	C2342.839355,166.931702 2308.900879,150.203232 2274.418213,134.702484 
	C2251.769775,124.521614 2228.344971,115.992958 2205.001221,107.452942 
	C2175.697754,96.732567 2146.259033,86.340416 2116.629883,76.560127 
	C2074.377930,62.613132 2031.391113,51.189564 1987.843750,42.072193 
	C1956.731445,35.558281 1925.477051,29.690872 1894.201904,23.997814 
	C1874.027466,20.325481 1853.751221,17.112371 1833.425903,14.403126 
	C1818.011353,12.348436 1802.456299,11.310092 1786.947876,10.007821 
	C1769.455078,8.538923 1751.940674,7.327748 1734.449341,5.842791 
	C1733.042847,5.723382 1731.742554,4.351474 1730.196533,2.780800 
	C2238.520264,2.000000 2747.040527,2.000000 3256.000000,2.000000 
	C3256.000000,506.041718 3256.000000,1010.083557 3256.000000,1515.062744 
z"/>
<path fill="#FEFEFE" opacity="1.000000" stroke="none" 
	d="
M1042.841064,2153.193359 
	C1027.828979,2105.311035 1016.533813,2057.395020 1009.370850,2008.493164 
	C1001.477112,1954.603027 998.544250,1900.467773 1000.188538,1846.051514 
	C1004.470215,1704.352295 1041.707153,1571.399902 1106.164917,1445.612305 
	C1146.500366,1366.898682 1195.452515,1294.117310 1255.249390,1228.840576 
	C1303.135010,1176.566528 1356.337402,1130.218994 1413.735962,1088.671997 
	C1492.041992,1031.991577 1577.234375,988.514954 1668.483643,956.928223 
	C1735.743530,933.645691 1804.784180,917.928650 1875.482300,909.243164 
	C1936.864014,901.702026 1998.422974,899.836548 2060.091553,902.734070 
	C2191.001709,908.884766 2316.708008,937.561523 2435.562256,993.362549 
	C2561.166016,1052.332642 2672.847656,1130.954712 2766.814697,1233.633667 
	C2819.373047,1291.064941 2862.327881,1355.044434 2894.660400,1426.000244 
	C2895.626221,1428.119995 2896.631348,1430.223633 2897.520508,1432.375244 
	C2897.754883,1432.941772 2897.621826,1433.660278 2897.706787,1435.211670 
	C2896.035156,1435.485352 2894.278076,1436.023560 2892.520508,1436.024902 
	C2824.188477,1436.075806 2755.855957,1435.967285 2687.525146,1436.261963 
	C2680.893311,1436.290527 2678.120850,1432.847168 2675.060059,1428.293823 
	C2651.427490,1393.135254 2625.788330,1359.538940 2597.839355,1327.658569 
	C2553.323242,1276.880981 2502.187500,1233.973755 2444.806885,1198.597656 
	C2353.985352,1142.604980 2256.473877,1103.524292 2151.224121,1084.628296 
	C2076.980713,1071.298706 2002.248291,1068.394409 1927.191895,1075.698242 
	C1781.362915,1089.888794 1649.061523,1141.032104 1528.951782,1223.963623 
	C1426.125244,1294.961548 1346.585815,1386.961670 1287.807495,1497.092651 
	C1248.335449,1571.050659 1219.218140,1648.760254 1203.134888,1731.144043 
	C1191.660034,1789.921753 1187.333862,1849.237183 1189.611572,1909.140137 
	C1192.819458,1993.505737 1209.716553,2074.998291 1239.607788,2153.809326 
	C1275.035645,2247.218262 1324.433716,2332.411133 1391.001343,2407.221680 
	C1453.479370,2477.436279 1527.004028,2533.593994 1609.733032,2577.932129 
	C1670.176025,2610.326416 1733.377441,2635.793701 1799.680542,2653.337646 
	C1847.118286,2665.890137 1895.342773,2674.123291 1944.298462,2677.854004 
	C2023.510376,2683.890625 2102.148682,2679.608398 2180.035400,2663.851318 
	C2245.335205,2650.640625 2307.806885,2628.887939 2367.715820,2599.798828 
	C2511.266357,2530.097900 2623.764648,2425.989502 2708.337158,2291.257324 
	C2733.062256,2251.867432 2751.085693,2209.183350 2766.378174,2165.347412 
	C2769.995117,2154.979736 2773.336670,2144.515137 2776.728027,2134.070068 
	C2777.729980,2130.982910 2778.467041,2127.809814 2779.589600,2123.711182 
	C2428.760010,2123.711182 2079.199219,2123.711182 1728.956421,2123.711182 
	C1727.169800,2119.835693 1725.390991,2116.360596 1723.931519,2112.755859 
	C1683.426270,2012.715332 1642.939209,1912.667358 1602.478638,1812.608765 
	C1552.529907,1689.085815 1502.607300,1565.552124 1452.673828,1442.023071 
	C1452.049438,1440.478149 1451.573242,1438.853027 1450.780762,1437.400146 
	C1448.370117,1432.980591 1449.264404,1429.530273 1452.726562,1425.815430 
	C1467.488281,1409.976318 1481.494995,1393.406738 1496.688599,1378.002563 
	C1524.833496,1349.467651 1555.862427,1324.295044 1590.197754,1300.773560 
	C1604.080811,1331.794556 1616.235840,1362.965942 1629.216431,1393.771362 
	C1642.280518,1424.774902 1655.018433,1455.915771 1667.891479,1486.999878 
	C1680.764282,1518.083496 1693.619751,1549.174194 1706.496826,1580.256104 
	C1719.247192,1611.032349 1732.000488,1641.807251 1744.778809,1672.571899 
	C1757.682373,1703.638062 1770.640015,1734.681641 1783.533447,1765.751953 
	C1796.429199,1796.827759 1809.257690,1827.931274 1822.147095,1859.009888 
	C1835.024414,1890.059448 1847.940186,1921.093018 1861.182129,1952.958740 
	C2242.459961,1952.958740 2623.644043,1952.958740 3005.991455,1952.958740 
	C3004.504639,1963.845581 3003.309326,1973.625732 3001.816895,1983.360352 
	C2992.876465,2041.668701 2982.262939,2099.633301 2966.671875,2156.602051 
	C2935.936523,2268.904541 2884.868164,2370.982422 2813.302002,2462.836670 
	C2759.054199,2532.463379 2695.087158,2591.959717 2624.675293,2644.839355 
	C2554.021484,2697.900635 2478.681396,2742.819336 2396.954102,2776.718262 
	C2323.081787,2807.359131 2246.584961,2828.513916 2167.499512,2840.510742 
	C2078.010498,2854.085205 1988.282593,2855.403564 1898.435059,2845.520752 
	C1784.513794,2832.989746 1675.914062,2801.599365 1572.361938,2752.364990 
	C1487.898193,2712.206543 1409.529419,2662.769775 1339.342285,2600.845947 
	C1213.125244,2489.488770 1117.875000,2356.408447 1058.678223,2198.278564 
	C1053.187500,2183.611572 1048.284424,2168.724121 1042.841064,2153.193359 
z"/>
<path fill="#717374" opacity="1.000000" stroke="none" 
	d="
M685.297302,917.344971 
	C715.836609,843.363708 746.086060,770.094482 776.289917,696.806458 
	C802.809631,632.457825 829.266907,568.083496 855.771851,503.728760 
	C890.645447,419.054993 925.538208,334.389069 960.428162,249.722046 
	C961.062683,248.182465 961.888489,246.712082 962.413513,245.138824 
	C963.984985,240.429504 966.960510,237.938065 972.131470,238.520569 
	C973.447754,238.668854 974.795227,238.538467 976.128418,238.538467 
	C1030.121704,238.538177 1084.116211,238.717072 1138.107056,238.355087 
	C1146.711426,238.297409 1151.247681,240.981705 1154.539551,249.038757 
	C1177.463013,305.143829 1200.788696,361.084686 1224.030762,417.059418 
	C1243.311401,463.493774 1262.695068,509.885437 1281.958252,556.327087 
	C1304.282959,610.150208 1326.509033,664.014404 1348.808838,717.847839 
	C1372.511963,775.068726 1396.242920,832.278015 1419.979736,889.484863 
	C1427.254028,907.016113 1434.614868,924.511475 1441.865112,942.052551 
	C1442.981934,944.754639 1443.715088,947.615356 1444.936035,951.352844 
	C1393.014526,982.013184 1343.845581,1015.967163 1296.363525,1055.193481 
	C1217.776733,860.846619 1139.770752,667.936218 1060.927979,472.956635 
	C1058.392212,478.725952 1056.724243,482.251404 1055.272217,485.863678 
	C1023.477600,564.962158 991.738953,644.083191 959.922791,723.172974 
	C925.866272,807.832092 891.697815,892.446167 857.660217,977.112793 
	C832.818176,1038.906128 808.182861,1100.782471 783.321533,1162.567993 
	C754.979126,1233.004761 726.425293,1303.356445 698.081665,1373.792725 
	C675.830505,1429.089111 653.828613,1484.485840 631.588501,1539.786743 
	C609.720520,1594.162109 587.620178,1648.444092 565.753113,1702.819824 
	C540.907288,1764.602661 516.287415,1826.476318 491.423004,1888.251587 
	C461.084473,1963.627075 430.600342,2038.943970 400.159058,2114.278076 
	C396.852142,2122.461914 396.790588,2122.514893 387.853577,2122.518311 
	C324.861420,2122.541748 261.869263,2122.537109 198.877121,2122.509521 
	C196.259949,2122.508301 193.642914,2122.192383 189.531708,2121.926514 
	C190.707886,2118.243896 191.449753,2115.211914 192.621811,2112.356934 
	C212.100037,2064.907959 231.609619,2017.471680 251.158585,1970.051880 
	C272.735321,1917.712769 294.352325,1865.390259 315.964783,1813.066040 
	C339.486725,1756.118652 363.070465,1699.196655 386.542572,1642.228760 
	C417.750397,1566.485596 448.826141,1490.687866 480.049805,1414.951172 
	C520.795227,1316.118408 561.661682,1217.335693 602.414795,1118.506104 
	C627.805176,1056.932373 653.079712,995.310791 678.415649,933.714539 
	C680.569702,928.477600 682.795288,923.270081 685.297302,917.344971 
z"/>
</svg>